<?xml version="1.0" standalone="no"?>
<!DOCTYPE svg PUBLIC "-//W3C//DTD SVG 20010904//EN"
 "http://www.w3.org/TR/2001/REC-SVG-20010904/DTD/svg10.dtd">
<svg version="1.0" xmlns="http://www.w3.org/2000/svg"
 width="512.000000pt" height="512.000000pt" viewBox="0 0 512.000000 512.000000"
 preserveAspectRatio="xMidYMid meet">
<metadata>
Created by potrace 1.11, written by Peter Selinger 2001-2013
</metadata>
<g transform="translate(0.000000,512.000000) scale(0.100000,-0.100000)"
fill="#000000" stroke="none">
<path d="M1945 4750 c9 -17 13 -35 10 -40 -6 -9 13 -25 21 -17 6 6 -33 87 -41
87 -3 0 2 -14 10 -30z"/>
<path d="M1863 4728 c3 -9 1 -19 -6 -21 -7 -3 -2 -4 10 -4 18 1 20 4 10 17
-19 25 -20 26 -14 8z"/>
<path d="M1910 4715 c-10 -12 -10 -18 1 -32 13 -15 12 -15 -8 -2 -32 19 -37 7
-13 -36 11 -20 16 -34 10 -30 -12 7 -14 -8 -2 -19 4 -4 7 -11 7 -14 0 -4 10
-21 22 -38 12 -17 20 -34 17 -37 -4 -3 4 -21 17 -39 13 -18 24 -35 24 -38 0
-3 3 -4 7 -3 5 2 7 0 6 -5 -4 -13 13 -52 22 -52 5 0 7 -7 3 -15 -6 -17 23 -55
42 -55 19 0 38 -27 25 -35 -6 -3 -8 -11 -4 -16 3 -5 10 -6 16 -3 6 4 8 2 5 -3
-7 -12 21 -53 68 -97 16 -16 30 -32 30 -35 0 -14 72 -70 80 -63 5 4 5 2 2 -4
-6 -11 33 -50 46 -46 5 1 6 -2 2 -8 -3 -5 -2 -10 2 -10 5 0 18 -7 29 -16 18
-14 18 -15 -5 -4 l-23 12 18 -26 c11 -14 25 -23 32 -21 7 3 10 0 7 -5 -3 -5 2
-21 11 -35 24 -36 13 -40 -22 -7 -16 15 -46 39 -66 52 -21 14 -38 28 -38 33 0
4 -5 7 -10 7 -6 0 -35 18 -65 40 -30 22 -55 37 -55 33 0 -4 -4 -3 -8 2 -8 12
-130 85 -141 85 -4 0 -36 14 -72 31 -81 40 -194 80 -239 85 -51 5 -115 19
-129 29 -40 24 -161 5 -161 -25 0 -5 -7 -7 -15 -4 -8 4 -15 1 -15 -5 0 -13
-37 -11 -59 4 -8 5 -4 -7 9 -25 18 -26 20 -32 7 -27 -9 3 -19 1 -23 -5 -4 -6
-3 -8 3 -5 6 4 14 0 17 -9 4 -9 2 -13 -5 -8 -7 4 -10 1 -7 -7 3 -8 11 -13 17
-12 6 2 11 -1 11 -6 0 -5 -10 -11 -22 -13 -20 -3 -19 -6 15 -22 20 -10 37 -22
37 -27 0 -4 18 -13 40 -19 22 -6 40 -13 40 -16 0 -4 -7 -4 -15 0 -8 3 -15 1
-15 -4 0 -6 10 -10 23 -10 18 0 19 -2 7 -10 -12 -8 -11 -10 6 -10 11 0 29 -8
40 -18 20 -19 26 -22 45 -22 5 0 7 -5 4 -10 -4 -6 -3 -10 2 -9 16 4 108 -14
121 -24 7 -5 25 -11 40 -13 16 -2 42 -8 58 -15 16 -6 55 -11 87 -12 31 0 57
-4 57 -8 0 -5 6 -6 13 -3 7 2 39 -7 70 -21 32 -14 68 -25 80 -25 17 0 19 -2 8
-9 -10 -7 -8 -9 10 -9 13 1 40 -2 59 -6 19 -4 40 -9 45 -10 6 -1 16 -5 23 -9
6 -5 12 -6 12 -3 0 3 15 -2 33 -12 17 -10 53 -25 80 -32 26 -8 47 -17 47 -20
0 -3 -48 -5 -107 -4 -60 1 -112 -2 -118 -5 -5 -3 -27 -6 -48 -7 -21 -1 -44 -7
-51 -13 -9 -7 -16 -7 -26 2 -10 9 -11 9 -6 0 5 -9 0 -13 -12 -13 -49 0 -111
-39 -64 -41 14 0 14 -2 -3 -8 -24 -10 -38 -4 -29 12 3 7 -2 3 -10 -7 -9 -11
-16 -15 -16 -9 0 8 -10 6 -30 -4 -17 -8 -28 -19 -25 -23 3 -5 -7 -13 -22 -16
-15 -4 -32 -11 -38 -16 -5 -5 -25 -18 -44 -29 -25 -15 -31 -23 -21 -29 9 -6 7
-11 -9 -20 -22 -11 -61 -46 -61 -54 0 -2 -18 -24 -40 -47 -22 -24 -46 -56 -53
-71 -6 -15 -15 -28 -18 -28 -4 0 -9 -8 -13 -17 -3 -10 -10 -25 -15 -33 -5 -8
-19 -35 -32 -60 -45 -91 -53 -105 -58 -110 -7 -5 -31 -58 -31 -66 0 -3 5 -2
12 2 7 4 8 3 4 -5 -6 -9 -11 -9 -24 1 -12 10 -14 10 -8 1 4 -7 3 -21 -3 -30
-7 -13 -5 -20 7 -29 14 -11 15 -16 4 -33 -14 -23 -4 -28 17 -8 11 10 13 9 8
-5 -7 -21 3 -23 22 -5 11 10 13 10 7 0 -11 -20 8 -15 38 8 14 11 26 18 26 15
0 -3 8 2 18 12 11 9 17 20 15 24 -2 4 4 5 13 1 13 -5 16 -3 11 10 -8 21 12 34
24 16 6 -10 9 -11 9 -1 0 6 8 12 18 12 29 0 64 30 57 49 -5 12 -3 13 5 5 14
-14 60 4 60 24 0 7 5 10 10 7 6 -3 14 4 19 17 6 13 10 17 10 11 1 -16 31 -17
31 -2 0 5 5 7 10 4 6 -3 13 1 16 9 3 9 12 16 20 16 7 0 18 9 24 20 6 11 17 20
26 20 8 0 19 12 24 26 6 14 14 22 20 19 13 -8 60 24 60 42 0 13 2 13 17 2 11
-10 14 -10 9 -1 -4 6 -3 12 2 12 5 0 22 11 38 25 15 13 30 22 32 20 3 -2 16 5
30 15 13 11 31 20 38 20 8 0 14 5 14 11 0 5 4 8 9 5 5 -4 11 -2 13 2 1 5 30
27 63 49 33 22 71 52 84 67 13 14 28 23 33 20 5 -3 12 3 15 15 3 12 10 21 15
21 5 0 6 5 2 12 -4 6 -3 8 3 5 6 -4 21 5 33 18 40 42 44 32 25 -65 -2 -10 -11
-33 -21 -52 -26 -50 -24 -167 5 -241 12 -31 27 -55 32 -52 5 4 6 -1 3 -10 -4
-8 0 -23 7 -32 8 -9 9 -14 3 -10 -8 4 -11 -9 -11 -40 0 -35 4 -47 18 -50 10
-3 20 -11 23 -19 4 -11 0 -10 -20 2 l-25 17 3 -37 c1 -20 6 -36 10 -36 4 0 8
-5 8 -11 0 -5 -4 -8 -9 -5 -13 8 -20 -28 -9 -48 6 -10 5 -16 -2 -16 -5 0 -10
-4 -10 -10 0 -5 6 -10 14 -10 8 0 18 -5 22 -12 5 -7 2 -9 -9 -5 -17 7 -44 -18
-29 -27 6 -3 9 -24 7 -47 -2 -30 1 -39 11 -35 7 3 16 1 19 -5 4 -5 3 -9 -2 -8
-25 4 -39 -3 -40 -22 -1 -13 3 -19 10 -16 7 3 13 -3 13 -14 0 -13 -3 -15 -13
-7 -10 8 -13 6 -13 -6 0 -9 6 -16 13 -16 8 0 7 -4 -3 -10 -13 -8 -13 -10 2
-10 9 0 20 5 23 10 4 6 11 7 17 4 8 -5 9 -1 5 10 -4 9 -3 15 1 12 4 -2 18 4
31 13 19 15 22 22 13 37 -6 11 -7 27 -1 41 9 23 8 23 -21 8 -26 -13 -29 -13
-24 0 3 8 9 14 12 13 4 -1 14 2 22 6 12 5 15 22 13 77 -2 38 1 68 5 65 5 -3 9
1 9 9 0 8 -4 15 -9 15 -4 0 -8 7 -8 15 0 8 4 15 9 15 6 0 9 9 8 19 -1 17 -3
18 -27 4 -24 -14 -24 -14 -5 2 20 16 20 16 1 31 -11 8 -15 14 -9 14 7 0 15 -5
18 -11 13 -21 29 -2 29 37 1 21 4 44 7 49 4 6 5 25 4 44 -2 32 4 67 19 131 22
87 32 166 29 223 -3 60 -2 67 15 67 10 0 24 -6 31 -12 11 -10 13 -10 7 0 -4 6
-2 12 3 12 6 0 11 -8 11 -17 0 -10 5 -25 10 -33 7 -11 8 -3 5 25 -4 29 -3 36
4 25 6 -8 11 -26 11 -39 0 -16 4 -21 15 -17 10 3 17 -3 22 -21 6 -25 7 -25 14
-8 7 17 8 18 8 3 1 -10 5 -18 10 -18 5 0 12 -11 15 -25 4 -14 13 -25 21 -25 9
0 20 -12 25 -26 6 -14 17 -36 26 -47 16 -22 16 -22 10 3 -4 14 6 1 21 -27 15
-29 33 -53 40 -53 7 0 13 -9 13 -21 0 -11 4 -18 9 -14 5 3 13 -4 16 -16 5 -15
9 -18 15 -9 5 8 10 3 14 -14 4 -15 11 -24 16 -21 6 3 10 0 10 -8 0 -8 14 -41
30 -72 17 -31 30 -63 30 -70 0 -14 22 -59 30 -63 3 -2 15 -5 28 -8 12 -4 22
-14 22 -24 0 -20 23 -43 33 -34 3 4 12 -6 19 -22 7 -16 20 -36 28 -46 8 -9 21
-24 28 -32 7 -9 22 -16 33 -16 11 0 18 -4 15 -8 -9 -16 11 -33 43 -35 24 -1
33 -8 38 -25 3 -14 11 -21 19 -18 8 3 14 1 14 -4 0 -6 5 -10 10 -10 6 0 10 11
10 25 0 14 4 25 10 25 6 0 8 17 5 43 -3 23 -7 62 -8 87 -2 25 -10 60 -20 79
-9 19 -17 40 -17 48 0 8 -9 33 -20 55 -11 23 -20 46 -20 51 0 5 -22 56 -50
112 -27 56 -50 111 -50 121 0 25 -48 76 -63 68 -7 -4 -9 -3 -4 1 4 5 -1 18
-10 29 -13 15 -10 14 10 -3 15 -14 27 -21 27 -18 0 10 -38 47 -49 47 -5 0 -15
7 -22 17 -13 15 -12 15 9 4 28 -15 29 0 1 17 -13 8 -18 19 -15 29 6 14 4 14
-11 2 -15 -12 -16 -12 -10 3 4 11 2 17 -6 15 -7 -1 -11 6 -9 17 3 17 2 18 -13
6 -14 -11 -16 -11 -13 1 2 8 -6 15 -19 17 -13 2 -23 12 -25 25 -2 16 -10 22
-28 23 -14 0 -32 3 -40 6 -38 16 -97 33 -115 33 -27 1 -126 25 -147 37 -10 5
-18 13 -18 18 0 6 8 10 18 10 13 0 14 2 3 9 -11 7 -10 11 7 20 11 6 28 11 36
11 27 0 122 58 174 107 15 14 37 29 50 34 14 5 20 14 16 21 -4 7 -3 8 4 4 7
-4 29 5 49 19 21 14 43 25 49 25 6 0 21 9 34 20 13 11 30 20 38 20 9 0 12 3 8
7 -8 8 91 73 112 73 9 0 12 6 8 15 -3 10 -1 15 7 14 21 -4 67 13 61 22 -3 5 3
9 13 9 25 1 76 47 67 62 -5 8 -2 9 10 5 10 -4 19 -1 22 8 4 8 10 12 15 9 5 -3
16 2 25 10 11 11 12 16 3 16 -7 0 -3 9 9 20 23 21 30 36 12 25 -5 -3 -10 1
-10 9 0 9 -8 16 -17 17 -10 0 -31 2 -48 5 -39 5 -157 4 -166 -1 -3 -3 -21 -6
-40 -9 -19 -2 -47 -9 -64 -16 -16 -6 -31 -11 -32 -11 -13 1 -86 -37 -118 -62
-22 -17 -33 -23 -25 -13 15 18 14 19 -17 2 -18 -9 -43 -17 -57 -18 -13 -1 -22
-6 -20 -10 3 -4 2 -8 -3 -9 -31 -3 -49 -12 -88 -43 -24 -20 -47 -36 -52 -36
-12 -1 -49 -34 -56 -50 -4 -11 -6 -10 -6 3 -1 16 -7 13 -37 -15 -20 -18 -44
-41 -53 -50 -8 -10 -19 -18 -24 -18 -12 0 -46 -42 -47 -58 0 -7 -4 -11 -9 -8
-12 8 -28 -13 -38 -53 -5 -19 -15 -37 -22 -39 -8 -3 -11 0 -7 7 9 13 -23 131
-35 131 -5 0 -9 7 -9 16 0 8 -5 12 -10 9 -6 -4 -9 -3 -8 2 6 18 -35 143 -44
137 -6 -4 -8 -1 -6 7 3 8 -5 30 -18 50 -12 20 -24 45 -26 55 -2 10 -9 25 -15
32 -7 7 -13 22 -13 33 0 10 -5 19 -11 19 -5 0 -7 5 -4 10 3 6 2 10 -4 10 -5 0
-13 9 -16 20 -4 11 -10 18 -14 15 -5 -2 -13 7 -20 21 -6 14 -16 22 -21 19 -6
-3 -10 1 -10 10 0 9 5 13 10 10 6 -3 -4 14 -21 39 -17 25 -33 46 -35 46 -3 0
-2 -4 1 -10 3 -6 -1 -7 -10 -4 -10 4 -13 10 -7 16 11 11 4 48 -10 48 -5 0 -4
-9 2 -20 8 -14 8 -20 0 -20 -6 0 -15 12 -20 26 -13 33 -13 37 2 28 7 -5 8 -3
4 5 -5 7 -11 10 -14 7 -3 -3 -14 8 -24 25 -11 17 -22 28 -26 25 -3 -4 0 -11 8
-16 9 -6 10 -10 3 -10 -6 0 -9 -8 -6 -18 3 -12 -2 -18 -16 -19 -12 -1 -21 3
-21 8 0 6 5 7 10 4 6 -3 10 -2 10 4 0 18 -12 41 -22 41 -6 0 -8 -7 -4 -15 11
-30 -9 -14 -23 18 -15 33 -41 65 -41 50 0 -5 6 -17 13 -28 17 -25 28 -67 16
-59 -5 3 -9 12 -9 20 0 8 -5 14 -11 14 -5 0 -7 5 -4 10 3 6 1 10 -4 10 -6 0
-11 6 -11 14 0 8 -5 18 -12 22 -8 5 -9 2 -5 -9 4 -10 2 -16 -6 -14 -7 1 -11
-5 -9 -13 1 -10 -3 -9 -14 5 -8 11 -20 19 -26 17 -8 -2 -8 1 0 11 11 13 7 27
-8 27 -4 0 -13 -7 -20 -15z m40 -55 c6 -11 8 -20 6 -20 -3 0 -10 9 -16 20 -6
11 -8 20 -6 20 3 0 10 -9 16 -20z m210 -85 c0 -5 -5 -3 -10 5 -5 8 -10 20 -10
25 0 6 5 3 10 -5 5 -8 10 -19 10 -25z m85 -85 c3 -5 1 -10 -4 -10 -6 0 -11 5
-11 10 0 6 2 10 4 10 3 0 8 -4 11 -10z m-125 -40 c6 -11 8 -20 6 -20 -3 0 -10
9 -16 20 -6 11 -8 20 -6 20 3 0 10 -9 16 -20z m-75 -99 c-3 -5 2 -17 11 -25 8
-9 11 -16 6 -16 -15 0 -34 28 -27 40 3 5 8 10 11 10 3 0 3 -4 -1 -9z m120
-131 c10 -11 16 -20 13 -20 -3 0 -13 9 -23 20 -10 11 -16 20 -13 20 3 0 13 -9
23 -20z m72 -116 c-3 -3 -12 -4 -19 -1 -8 3 -5 6 6 6 11 1 17 -2 13 -5z m-289
-549 c-3 -3 -9 2 -12 12 -6 14 -5 15 5 6 7 -7 10 -15 7 -18z m377 -75 c3 -5 1
-10 -4 -10 -6 0 -11 5 -11 10 0 6 2 10 4 10 3 0 8 -4 11 -10z m-318 -96 c-3
-3 -12 -4 -19 -1 -8 3 -5 6 6 6 11 1 17 -2 13 -5z m-35 -76 c-8 -8 -9 -4 -5
13 4 13 8 18 11 10 2 -7 -1 -18 -6 -23z m1309 -5 c13 -16 12 -17 -3 -4 -17 13
-22 21 -14 21 2 0 10 -8 17 -17z m43 -41 c3 -5 -1 -9 -9 -9 -8 0 -12 4 -9 9 3
4 7 8 9 8 2 0 6 -4 9 -8z m51 -92 c3 -6 -1 -7 -9 -4 -18 7 -21 14 -7 14 6 0
13 -4 16 -10z m-1599 -15 c-1 -8 -5 -17 -8 -21 -5 -4 -4 16 1 34 3 9 9 -1 7
-13z m814 -17 c0 -4 -9 -6 -20 -5 -23 2 -24 3 -7 21 11 13 26 4 27 -16z m-40
-22 c0 -3 -4 -8 -10 -11 -5 -3 -10 -1 -10 4 0 6 5 11 10 11 6 0 10 -2 10 -4z
m35 -6 c-3 -5 -12 -10 -18 -10 -7 0 -6 4 3 10 19 12 23 12 15 0z m-1 -52 c-9
-14 -23 2 -17 18 4 12 8 13 14 3 4 -7 5 -17 3 -21z m-57 -1 c0 -8 -6 -14 -14
-14 -9 0 -10 4 -2 14 6 7 12 13 14 13 1 0 2 -6 2 -13z m843 -45 c0 -15 -2 -15
-10 -2 -13 20 -13 33 0 25 6 -3 10 -14 10 -23z m-820 -94 c0 -4 -6 -8 -12 -9
-10 0 -10 -2 0 -6 6 -2 12 -9 12 -14 0 -6 -4 -8 -9 -5 -5 4 -11 3 -13 -2 -1
-4 -11 0 -21 11 -17 17 -17 18 0 15 10 -2 17 2 16 8 -1 6 5 11 13 11 8 0 14
-4 14 -9z m843 -33 c-7 -21 -12 -19 -10 4 0 11 5 18 9 15 4 -3 5 -11 1 -19z
m-843 -46 c0 -17 -4 -28 -10 -24 -5 3 -8 16 -6 28 6 28 5 27 11 27 3 0 5 -14
5 -31z m864 5 c3 -8 2 -12 -4 -9 -6 3 -10 10 -10 16 0 14 7 11 14 -7z m-844
-38 c0 -2 -8 -10 -17 -17 -16 -13 -17 -12 -4 4 13 16 21 21 21 13z m-15 -86
c-3 -5 -11 -10 -16 -10 -6 0 -7 5 -4 10 3 6 11 10 16 10 6 0 7 -4 4 -10z m15
-39 c0 -4 -6 -8 -12 -8 -7 0 -22 -4 -33 -9 -17 -7 -18 -6 -5 7 14 16 50 23 50
10z"/>
<path d="M2070 4669 c0 -11 4 -18 10 -14 5 3 7 12 3 20 -7 21 -13 19 -13 -6z"/>
<path d="M1910 4532 c0 -12 19 -26 26 -19 2 2 -2 10 -11 17 -9 8 -15 8 -15 2z"/>
<path d="M2070 4280 c0 -5 5 -10 11 -10 5 0 7 5 4 10 -3 6 -8 10 -11 10 -2 0
-4 -4 -4 -10z"/>
<path d="M3128 3593 c7 -3 16 -2 19 1 4 3 -2 6 -13 5 -11 0 -14 -3 -6 -6z"/>
<path d="M2547 2644 c-7 -7 2 -34 12 -34 4 0 7 9 8 20 2 19 -8 26 -20 14z"/>
<path d="M2493 2606 c-26 -12 -29 -26 -11 -44 9 -9 9 -12 -2 -12 -9 0 -8 -6 6
-22 16 -17 16 -20 3 -15 -13 4 -16 -1 -15 -26 2 -22 7 -31 17 -29 8 2 10 0 6
-5 -5 -4 -13 -9 -18 -9 -22 -3 -23 -5 -9 -14 12 -8 12 -10 1 -10 -11 0 -11 -3
0 -17 8 -10 9 -14 2 -10 -17 10 -28 -13 -12 -24 12 -7 11 -9 -1 -10 -10 0 -8
-3 5 -9 14 -6 15 -9 5 -9 -17 -1 -21 -55 -7 -78 5 -8 4 -13 -2 -13 -6 0 -11
-9 -11 -20 0 -11 5 -18 13 -16 40 13 67 15 67 6 0 -5 -16 -10 -36 -10 -24 0
-33 -4 -28 -12 4 -6 3 -8 -4 -4 -7 4 -10 -4 -10 -23 1 -17 5 -28 10 -25 4 3 8
0 8 -5 0 -6 -4 -11 -8 -11 -4 0 -8 -24 -8 -54 1 -30 4 -52 8 -50 6 4 5 -27 -3
-73 -3 -20 2 -34 11 -28 6 3 7 -1 4 -9 -3 -9 -9 -14 -13 -12 -4 3 -7 -4 -7
-14 0 -10 5 -16 10 -13 5 4 6 -4 2 -18 -11 -38 -14 -69 -6 -64 5 3 6 -18 4
-47 -2 -31 1 -58 9 -67 10 -12 9 -14 -7 -8 -16 6 -17 5 -7 -7 7 -8 10 -20 7
-25 -4 -5 2 -15 11 -21 17 -11 17 -11 1 -6 -12 3 -18 0 -18 -9 0 -8 8 -15 17
-15 15 0 15 -1 -2 -14 -10 -7 -16 -20 -12 -28 3 -9 0 -21 -6 -28 -9 -9 -7 -11
8 -8 11 1 24 8 28 13 5 6 7 4 4 -5 -2 -8 -9 -15 -14 -15 -18 0 -22 -9 -22 -53
-1 -23 -1 -60 -1 -83 -1 -26 3 -38 10 -34 7 4 7 -2 0 -21 -9 -23 -9 -25 4 -15
11 9 16 9 22 0 4 -7 3 -9 -3 -6 -6 4 -13 0 -17 -8 -3 -8 -1 -15 4 -15 6 0 10
-5 10 -11 0 -6 -7 -8 -16 -5 -15 6 -15 4 1 -20 9 -15 12 -24 7 -20 -6 4 -10
-2 -9 -14 1 -11 5 -20 10 -20 4 0 5 -4 2 -10 -3 -5 -1 -19 6 -31 9 -17 8 -20
-2 -14 -9 6 -11 2 -7 -13 3 -12 1 -23 -6 -26 -7 -3 -7 -5 2 -5 7 -1 11 -5 8
-10 -3 -5 -8 -29 -11 -55 -4 -34 -2 -46 7 -46 9 0 10 -3 2 -8 -13 -8 -15 -84
-2 -76 4 3 8 0 8 -5 0 -6 -6 -11 -12 -11 -10 0 -9 -3 1 -9 10 -7 11 -13 2 -30
-7 -11 -8 -21 -3 -21 5 0 7 -17 5 -37 -5 -52 -5 -54 0 -85 2 -16 1 -28 -2 -28
-10 0 -7 -52 3 -69 6 -9 5 -12 -1 -8 -6 4 -10 -11 -11 -35 -1 -23 -4 -43 -7
-46 -2 -3 0 -14 6 -25 8 -14 8 -17 0 -13 -6 4 -10 -4 -9 -21 0 -15 -2 -48 -6
-73 -3 -25 -2 -50 2 -56 10 -16 44 -30 67 -28 11 0 30 2 43 3 14 0 26 10 31
23 10 27 3 51 -11 42 -6 -4 -2 5 7 20 10 14 13 26 7 26 -6 0 -12 -3 -15 -7 -2
-5 -2 -1 1 7 11 36 4 201 -9 217 -11 13 -11 15 -1 9 12 -7 11 36 -2 139 0 6
-8 13 -16 17 -12 5 -12 7 3 7 9 1 17 6 17 12 0 5 -6 7 -12 3 -10 -5 -10 -4 -1
6 10 11 9 18 -5 34 -16 20 -16 20 1 7 15 -12 17 -11 18 15 6 128 5 135 -19
128 -12 -4 -11 -1 3 8 23 15 35 55 13 42 -10 -6 -10 -4 1 9 9 11 10 17 2 17
-6 0 -11 5 -11 11 0 5 5 7 10 4 6 -3 10 1 10 9 0 10 -6 13 -17 9 -15 -5 -14
-3 2 10 13 11 15 16 6 17 -9 0 -10 4 -4 13 15 18 12 47 -4 47 -12 0 -11 3 1
16 14 14 14 34 0 34 -3 0 -3 -4 0 -8 3 -5 -1 -9 -8 -9 -7 0 -13 6 -13 13 0 7
3 13 6 12 22 -2 27 7 27 47 -1 25 -4 45 -9 45 -4 0 -3 9 3 19 13 25 13 31 -1
31 -5 0 -7 -4 -4 -10 3 -6 -1 -7 -9 -4 -9 3 -16 10 -16 16 0 5 5 6 11 2 8 -5
10 1 7 19 -3 18 -1 24 8 20 9 -3 11 2 7 16 -3 12 -9 21 -14 21 -5 0 -9 5 -9
11 0 5 6 7 13 3 9 -5 9 -4 0 6 -8 9 -9 20 -2 38 9 22 8 23 -6 12 -14 -11 -16
-11 -13 1 2 8 9 19 17 25 9 7 10 13 3 18 -5 3 -8 20 -6 36 4 20 1 30 -8 30
-10 0 -10 2 1 9 9 6 10 11 2 15 -6 4 -11 13 -11 19 0 7 4 6 10 -3 8 -12 10
-11 10 8 0 14 -6 22 -17 22 -15 0 -15 2 -4 9 8 5 15 26 16 46 1 38 -9 53 -21
34 -5 -8 -3 -9 7 -4 8 5 11 4 6 -1 -5 -5 -12 -9 -15 -9 -4 0 -14 -4 -22 -10
-12 -7 -13 -6 -3 7 7 8 9 18 5 22 -4 4 -2 7 3 5 6 -1 18 1 28 6 17 7 17 8 0
21 -11 9 -13 13 -4 12 8 -2 14 6 16 19 1 12 -2 20 -7 17 -10 -6 -11 10 -1 20
11 10 12 37 2 30 -5 -3 -9 4 -9 15 0 12 4 21 8 21 5 0 9 7 9 15 0 8 -4 15 -9
15 -4 0 -8 5 -8 11 0 5 4 8 8 5 5 -3 9 1 9 9 0 20 -14 19 -26 -2 -6 -10 -11
-13 -11 -6 0 6 8 18 18 25 22 17 26 38 7 38 -19 0 -19 5 2 37 17 26 17 27 -1
20 -19 -8 -19 -7 -1 13 18 20 18 20 -1 17 -10 -1 -26 -7 -34 -12 -13 -8 -13
-7 -1 8 7 9 17 14 22 11 10 -6 10 -3 14 64 1 25 -2 38 -6 30 -5 -7 -9 -8 -9
-2 0 6 3 14 7 18 4 3 8 14 9 22 2 12 -6 8 -25 -11 -16 -14 -28 -33 -27 -42 0
-9 -6 -18 -14 -20 -12 -4 -13 -3 -1 5 7 5 10 15 6 22 -4 7 2 18 14 26 12 9 18
20 15 26 -4 7 -2 8 4 4 7 -4 12 -1 12 9 0 9 4 14 9 11 11 -7 8 21 -4 31 -4 4
-5 2 0 -6 6 -10 4 -12 -5 -6 -11 7 -10 10 1 19 8 6 15 25 16 41 2 21 0 26 -7
15 -5 -8 -6 -18 -4 -22 6 -10 -32 -5 -42 5 -4 4 2 7 14 7 14 0 22 6 22 16 0
10 -6 14 -15 10 -8 -3 -15 0 -15 5 0 7 11 9 24 7 17 -4 23 -1 19 9 -3 7 -1 13
4 13 10 0 9 47 -1 72 -10 21 -36 12 -31 -11 2 -10 -2 -18 -9 -18 -19 0 -15 24
5 43 14 13 22 14 32 6 10 -9 14 -8 14 3 0 13 -18 26 -42 30 -5 0 -20 -4 -32
-9z m64 -71 c0 -8 -4 -12 -9 -9 -4 3 -8 9 -8 15 0 5 4 9 8 9 5 0 9 -7 9 -15z
m-13 -24 c4 -5 -3 -7 -14 -4 -23 6 -26 13 -6 13 8 0 17 -4 20 -9z m-34 -21 c0
-5 -2 -10 -4 -10 -3 0 -8 5 -11 10 -3 6 -1 10 4 10 6 0 11 -4 11 -10z m5 -103
c-12 -10 -14 -16 -7 -21 7 -4 12 -12 12 -19 0 -6 -7 -1 -16 12 -14 19 -14 25
-3 32 22 14 35 10 14 -4z m12 -262 c0 -8 -4 -12 -9 -9 -5 3 -6 10 -3 15 9 13
12 11 12 -6z m-37 -35 c0 -5 -2 -10 -4 -10 -3 0 -8 5 -11 10 -3 6 -1 10 4 10
6 0 11 -4 11 -10z m-5 -30 c3 -6 -1 -7 -9 -4 -18 7 -21 14 -7 14 6 0 13 -4 16
-10z m46 -3 c-7 -7 -14 -8 -21 -1 -6 6 -2 10 12 11 16 2 18 -1 9 -10z m-18
-42 c-3 -9 -8 -14 -10 -11 -3 3 -2 9 2 15 9 16 15 13 8 -4z m14 -30 c-15 -6
-24 -15 -20 -20 5 -4 2 -5 -5 -1 -15 9 -6 26 14 26 8 0 14 5 14 11 0 5 5 7 12
3 8 -5 3 -12 -15 -19z m-25 -39 c7 4 8 2 4 -5 -9 -14 -36 3 -36 23 0 6 5 3 11
-7 6 -9 15 -14 21 -11z m21 -87 c-8 -8 -13 -7 -18 2 -5 8 -4 10 3 5 7 -4 12
-2 12 5 0 7 3 9 7 6 4 -4 2 -12 -4 -18z m-13 -154 c0 -7 -30 -13 -34 -7 -3 4
4 9 15 9 10 1 19 0 19 -2z m21 -18 c-10 -9 -11 -8 -5 6 3 10 9 15 12 12 3 -3
0 -11 -7 -18z m16 -74 c1 -22 -1 -24 -8 -10 -6 9 -7 22 -4 27 9 14 10 13 12
-17z m-9 -68 c-3 -3 -9 2 -12 12 -6 14 -5 15 5 6 7 -7 10 -15 7 -18z m7 -63
c-3 -3 -11 0 -18 7 -9 10 -8 11 6 5 10 -3 15 -9 12 -12z m-37 -4 c-5 -23 -38
-38 -38 -17 0 5 4 8 9 5 5 -3 11 1 15 9 7 18 17 20 14 3z m49 -29 c-9 -6 -15
-14 -13 -18 3 -4 -5 -13 -16 -20 -20 -12 -20 -12 1 18 12 17 28 31 34 31 7 0
4 -5 -6 -11z m-52 -19 c3 -6 -1 -7 -9 -4 -18 7 -21 14 -7 14 6 0 13 -4 16 -10z
m-19 -55 c-1 -8 -5 -17 -8 -21 -5 -4 -4 16 1 34 3 9 9 -1 7 -13z m39 -24 c-3
-6 -11 -11 -16 -11 -5 0 -4 6 3 14 14 16 24 13 13 -3z m51 -43 c1 -11 -3 -15
-14 -11 -10 4 -13 2 -8 -5 5 -8 2 -10 -10 -5 -14 5 -13 8 6 18 15 8 19 14 11
18 -9 4 -9 5 0 3 7 -1 13 -9 15 -18z m-69 -381 c0 -8 -6 -14 -14 -14 -9 0 -10
4 -2 14 6 7 12 13 14 13 1 0 2 -6 2 -13z"/>
</g>
</svg>
